HIERARCHY
ROOT hip
{
  OFFSET 0 90.174 2.4664
  CHANNELS 6 Xposition Yposition Zposition Zrotation Xrotation Yrotation
  JOINT abdomen
  {
    OFFSET 0 -1.186 -1.5018
    CHANNELS 6 Xposition Yposition Zposition Zrotation Xrotation Yrotation
    JOINT abdomen2
    {
      OFFSET 0 9.964 0.2134
      CHANNELS 6 Xposition Yposition Zposition Zrotation Xrotation Yrotation
      JOINT chest
      {
        OFFSET 0 13.134 -3.2573
        CHANNELS 6 Xposition Yposition Zposition Zrotation Xrotation Yrotation
        JOINT neck
        {
          OFFSET 0 20.686 -1.6905
          CHANNELS 6 Xposition Yposition Zposition Zrotation Xrotation Yrotation
          JOINT head
          {
            OFFSET 0 7.238 -0.1237
            CHANNELS 6 Xposition Yposition Zposition Zrotation Xrotation Yrotation
            End Site
            {
              OFFSET 0 0 0
            }
          }
        }
        JOINT lCollar
        {
          OFFSET 1.7069 20.075 5.0056
          CHANNELS 6 Xposition Yposition Zposition Zrotation Xrotation Yrotation
          JOINT lShldr
          {
            OFFSET 13.6458 -0.047 -4.849
            CHANNELS 6 Xposition Yposition Zposition Zrotation Xrotation Yrotation
            JOINT lForeArm
            {
              OFFSET 28.3255 -0.9759 2.2888
              CHANNELS 6 Xposition Yposition Zposition Zrotation Xrotation Yrotation
              JOINT lHand
              {
                OFFSET 22.1583 -0.53 10.8316
                CHANNELS 6 Xposition Yposition Zposition Zrotation Xrotation Yrotation
                JOINT lThumb1
                {
                  OFFSET 0.786 0.112 2.5817
                  CHANNELS 6 Xposition Yposition Zposition Zrotation Xrotation Yrotation
                  JOINT lThumb2
                  {
                    OFFSET 0.3601 -0.878 4.2331
                    CHANNELS 6 Xposition Yposition Zposition Zrotation Xrotation Yrotation
                    JOINT lThumb2_End
                    {
                      OFFSET 1.8127 -1.216 2.2227
                      CHANNELS 6 Xposition Yposition Zposition Zrotation Xrotation Yrotation
                      End Site
                      {
                        OFFSET 0.0181 -0.0122 0.0222
                      }
                    }
                  }
                }
                JOINT lCarpal1
                {
                  OFFSET 0.9571 1.114 1.7695
                  CHANNELS 6 Xposition Yposition Zposition Zrotation Xrotation Yrotation
                  JOINT lIndex1
                  {
                    OFFSET 4.1246 0.487 4.1451
                    CHANNELS 6 Xposition Yposition Zposition Zrotation Xrotation Yrotation
                    JOINT lIndex2
                    {
                      OFFSET 3.4052 -1.454 2.7682
                      CHANNELS 6 Xposition Yposition Zposition Zrotation Xrotation Yrotation
                      JOINT lIndex2_End
                      {
                        OFFSET 1.4531 -1.795 1.2713
                        CHANNELS 6 Xposition Yposition Zposition Zrotation Xrotation Yrotation
                        End Site
                        {
                          OFFSET 0.0145 -0.0179 0.0127
                        }
                      }
                    }
                  }
                  JOINT lMid1
                  {
                    OFFSET 5.6954 0.21 2.1184
                    CHANNELS 6 Xposition Yposition Zposition Zrotation Xrotation Yrotation
                    JOINT lMid2
                    {
                      OFFSET 3.9766 -1.54 2.3863
                      CHANNELS 6 Xposition Yposition Zposition Zrotation Xrotation Yrotation
                      JOINT lMid2_End
                      {
                        OFFSET 1.4042 -1.926 1.125
                        CHANNELS 6 Xposition Yposition Zposition Zrotation Xrotation Yrotation
                        End Site
                        {
                          OFFSET 0.014 -0.0193 0.0113
                        }
                      }
                    }
                  }
                }
                JOINT lCarpal2
                {
                  OFFSET 2.0956 0.66 -0.3894
                  CHANNELS 6 Xposition Yposition Zposition Zrotation Xrotation Yrotation
                  JOINT lRing1
                  {
                    OFFSET 5.0395 -0.09 2.4971
                    CHANNELS 6 Xposition Yposition Zposition Zrotation Xrotation Yrotation
                    JOINT lRing2
                    {
                      OFFSET 3.7921 -1.552 1.4806
                      CHANNELS 6 Xposition Yposition Zposition Zrotation Xrotation Yrotation
                      JOINT lRing2_End
                      {
                        OFFSET 1.4655 -1.808 0.9609
                        CHANNELS 6 Xposition Yposition Zposition Zrotation Xrotation Yrotation
                        End Site
                        {
                          OFFSET 0.0147 -0.0181 0.0096
                        }
                      }
                    }
                  }
                  JOINT lPinky1
                  {
                    OFFSET 4.9141 -1.269 0.3591
                    CHANNELS 6 Xposition Yposition Zposition Zrotation Xrotation Yrotation
                    JOINT lPinky2
                    {
                      OFFSET 3.1477 -1.685 0.8462
                      CHANNELS 6 Xposition Yposition Zposition Zrotation Xrotation Yrotation
                      JOINT lPinky2_End
                      {
                        OFFSET 0.8055 -1.585 0.7955
                        CHANNELS 6 Xposition Yposition Zposition Zrotation Xrotation Yrotation
                        End Site
                        {
                          OFFSET 0.0081 -0.0158 0.008
                        }
                      }
                    }
                  }
                }
              }
            }
          }
        }
        JOINT rCollar
        {
          OFFSET -1.7069 20.075 5.0056
          CHANNELS 6 Xposition Yposition Zposition Zrotation Xrotation Yrotation
          JOINT rShldr
          {
            OFFSET -13.6458 -0.047 -4.849
            CHANNELS 6 Xposition Yposition Zposition Zrotation Xrotation Yrotation
            JOINT rForeArm
            {
              OFFSET -28.3255 -0.9759 2.2888
              CHANNELS 6 Xposition Yposition Zposition Zrotation Xrotation Yrotation
              JOINT rHand
              {
                OFFSET -22.1583 -0.53 10.8316
                CHANNELS 6 Xposition Yposition Zposition Zrotation Xrotation Yrotation
                JOINT rThumb1
                {
                  OFFSET -0.786 0.112 2.5817
                  CHANNELS 6 Xposition Yposition Zposition Zrotation Xrotation Yrotation
                  JOINT rThumb2
                  {
                    OFFSET -0.3601 -0.878 4.2331
                    CHANNELS 6 Xposition Yposition Zposition Zrotation Xrotation Yrotation
                    JOINT rThumb2_End
                    {
                      OFFSET -1.8127 -1.216 2.2227
                      CHANNELS 6 Xposition Yposition Zposition Zrotation Xrotation Yrotation
                      End Site
                      {
                        OFFSET -0.0181 -0.0122 0.0222
                      }
                    }
                  }
                }
                JOINT rCarpal1
                {
                  OFFSET -0.9571 1.114 1.7695
                  CHANNELS 6 Xposition Yposition Zposition Zrotation Xrotation Yrotation
                  JOINT rIndex1
                  {
                    OFFSET -4.1246 0.487 4.1451
                    CHANNELS 6 Xposition Yposition Zposition Zrotation Xrotation Yrotation
                    JOINT rIndex2
                    {
                      OFFSET -3.4052 -1.454 2.7682
                      CHANNELS 6 Xposition Yposition Zposition Zrotation Xrotation Yrotation
                      JOINT rIndex2_End
                      {
                        OFFSET -1.4531 -1.795 1.2713
                        CHANNELS 6 Xposition Yposition Zposition Zrotation Xrotation Yrotation
                        End Site
                        {
                          OFFSET -0.0145 -0.018 0.0127
                        }
                      }
                    }
                  }
                  JOINT rMid1
                  {
                    OFFSET -5.6954 0.21 2.1184
                    CHANNELS 6 Xposition Yposition Zposition Zrotation Xrotation Yrotation
                    JOINT rMid2
                    {
                      OFFSET -3.9766 -1.54 2.3863
                      CHANNELS 6 Xposition Yposition Zposition Zrotation Xrotation Yrotation
                      JOINT rMid2_End
                      {
                        OFFSET -1.4042 -1.926 1.125
                        CHANNELS 6 Xposition Yposition Zposition Zrotation Xrotation Yrotation
                        End Site
                        {
                          OFFSET -0.014 -0.0193 0.0113
                        }
                      }
                    }
                  }
                }
                JOINT rCarpal2
                {
                  OFFSET -2.0956 0.66 -0.3894
                  CHANNELS 6 Xposition Yposition Zposition Zrotation Xrotation Yrotation
                  JOINT rRing1
                  {
                    OFFSET -5.0395 -0.09 2.4971
                    CHANNELS 6 Xposition Yposition Zposition Zrotation Xrotation Yrotation
                    JOINT rRing2
                    {
                      OFFSET -3.7921 -1.552 1.4806
                      CHANNELS 6 Xposition Yposition Zposition Zrotation Xrotation Yrotation
                      JOINT rRing2_End
                      {
                        OFFSET -1.4655 -1.808 0.9609
                        CHANNELS 6 Xposition Yposition Zposition Zrotation Xrotation Yrotation
                        End Site
                        {
                          OFFSET -0.0147 -0.0181 0.0096
                        }
                      }
                    }
                  }
                  JOINT rPinky1
                  {
                    OFFSET -4.9141 -1.269 0.3592
                    CHANNELS 6 Xposition Yposition Zposition Zrotation Xrotation Yrotation
                    JOINT rPinky2
                    {
                      OFFSET -3.1477 -1.685 0.8462
                      CHANNELS 6 Xposition Yposition Zposition Zrotation Xrotation Yrotation
                      JOINT rPinky2_End
                      {
                        OFFSET -0.8055 -1.585 0.7955
                        CHANNELS 6 Xposition Yposition Zposition Zrotation Xrotation Yrotation
                        End Site
                        {
                          OFFSET -0.0081 -0.0158 0.008
                        }
                      }
                    }
                  }
                }
              }
            }
          }
        }
      }
    }
  }
  JOINT lThigh
  {
    OFFSET 8.367 -8.2066 0.5982
    CHANNELS 6 Xposition Yposition Zposition Zrotation Xrotation Yrotation
    JOINT lShin
    {
      OFFSET 2.1923 -43.463 -0.4932
      CHANNELS 6 Xposition Yposition Zposition Zrotation Xrotation Yrotation
      JOINT lFoot
      {
        OFFSET 0.7333 -45.8593 -2.6451
        CHANNELS 6 Xposition Yposition Zposition Zrotation Xrotation Yrotation
        End Site
        {
          OFFSET 2.6618 -4.2699 12.3931
        }
      }
    }
  }
  JOINT rThigh
  {
    OFFSET -8.367 -8.2066 0.5982
    CHANNELS 6 Xposition Yposition Zposition Zrotation Xrotation Yrotation
    JOINT rShin
    {
      OFFSET -2.1923 -43.463 -0.4931
      CHANNELS 6 Xposition Yposition Zposition Zrotation Xrotation Yrotation
      JOINT rFoot
      {
        OFFSET -0.7333 -45.8593 -2.6451
        CHANNELS 6 Xposition Yposition Zposition Zrotation Xrotation Yrotation
        End Site
        {
          OFFSET -2.6618 -4.2699 12.3931
        }
      }
    }
  }
}
MOTION
Frames:	4
Frame Time:	0.0333333
1.7436 58.4973 13.8569 0 26.6503 -0 0 -1.186 -1.5018 0.241778 -1.92639 -0.278835 -2.22045e-016 9.964 0.2134 0.47457 -3.85392 -0.549996 0 13.134 -3.2573 0.47457 -3.85392 -0.549995 0 20.686 -1.6905 -9.24682e-006 19.7266 6.15876e-006 4.44089e-016 7.238 -0.1237 6.43231 -37.5151 3.30511 1.7069 20.075 5.0056 -17.8775 -9.74796 -27.4346 13.6458 -0.047 -4.849 -54.8124 58.0007 25.5609 28.3255 -0.9759 2.2888 -2.90062 2.69266 -4.61958 22.1583 -0.53 10.8316 22.611 -16.3612 -29.6561 0.786 0.112 2.5817 1.27222e-014 -2.38542e-015 7.95139e-016 0.3601 -0.878 4.2331 3.18055e-015 -1.59028e-015 1.59028e-015 1.8127 -1.216 2.2227 3.18055e-015 -1.59028e-015 7.95139e-016 0.9571 1.114 1.7695 1.27222e-014 -2.38542e-015 7.95139e-016 4.1246 0.487 4.1451 3.18055e-015 6.36111e-015 1.11319e-014 3.4052 -1.454 2.7682 6.36111e-015 -1.59028e-015 1.59028e-015 1.4531 -1.795 1.2713 6.36111e-015 -1.59028e-015 7.95139e-016 5.6954 0.21 2.1184 3.18055e-015 6.36111e-015 1.11319e-014 3.9766 -1.54 2.3863 6.36111e-015 -1.59028e-015 1.59028e-015 1.4042 -1.926 1.125 6.36111e-015 -1.59028e-015 7.95139e-016 2.0956 0.66 -0.3894 1.27222e-014 -2.38542e-015 7.95139e-016 5.0395 -0.09 2.4971 3.18055e-015 6.36111e-015 1.11319e-014 3.7921 -1.552 1.4806 6.36111e-015 -1.59028e-015 1.59028e-015 1.4655 -1.808 0.9609 6.36111e-015 -1.59028e-015 7.95139e-016 4.9141 -1.269 0.3591 3.18055e-015 6.36111e-015 1.11319e-014 3.1477 -1.685 0.8462 6.36111e-015 -1.59028e-015 1.59028e-015 0.8055 -1.585 0.7955 6.36111e-015 -1.59028e-015 7.95139e-016 -1.7069 20.075 5.0056 12.2597 0.00773284 -34.5974 -13.6458 -0.047 -4.849 91.562 -4.04413 73.3149 -28.3255 -0.9759 2.2888 12.8443 44.9374 71.7023 -22.1583 -0.53 10.8316 46.306 -22.1606 9.75374 -0.786 0.112 2.5817 1.71181e-006 1.17306e-006 -3.1721e-006 -0.3601 -0.878 4.2331 -3.18055e-015 1.59028e-015 4.77083e-015 -1.8127 -1.216 2.2227 -9.26477e-007 4.17939e-007 -1.31914e-006 -0.9571 1.114 1.7695 4.41391e-032 1.59028e-015 -1.59028e-015 -4.1246 0.487 4.1451 1.71181e-006 1.17306e-006 -3.1721e-006 -3.4052 -1.454 2.7682 -3.18055e-015 1.59028e-015 4.77083e-015 -1.4531 -1.795 1.2713 -9.26477e-007 4.17939e-007 -1.31914e-006 -5.6954 0.21 2.1184 1.71181e-006 1.17306e-006 -3.1721e-006 -3.9766 -1.54 2.3863 -3.18055e-015 1.59028e-015 4.77083e-015 -1.4042 -1.926 1.125 -9.26477e-007 4.17939e-007 -1.31914e-006 -2.0956 0.66 -0.3894 4.41391e-032 1.59028e-015 -1.59028e-015 -5.0395 -0.09 2.4971 1.71181e-006 1.17306e-006 -3.1721e-006 -3.7921 -1.552 1.4806 -3.18055e-015 1.59028e-015 4.77083e-015 -1.4655 -1.808 0.9609 -9.26477e-007 4.17939e-007 -1.31914e-006 -4.9141 -1.269 0.3592 1.71181e-006 1.17306e-006 -3.1721e-006 -3.1477 -1.685 0.8462 -3.18055e-015 1.59028e-015 4.77083e-015 -0.8055 -1.585 0.7955 -9.26477e-007 4.17939e-007 -1.31914e-006 8.367 -8.2066 0.5982 60.0797 -12.1418 21.4927 2.1923 -43.463 -0.4932 2.13009 79.3132 2.65772 0.7333 -45.8593 -2.6451 -45.8117 48.5725 59.5487 -8.367 -8.2066 0.5982 -60.2017 -12.2137 -21.4375 -2.1923 -43.463 -0.4931 -2.23575 79.2944 -2.56234 -0.7333 -45.8593 -2.6451 45.8743 48.554 -59.6041 
1.74405 58.5299 13.7273 0 27.3031 -0 0 -1.186 -1.5018 0.242705 -2.07675 -0.278032 0 9.964 0.2134 0.475784 -4.15464 -0.547792 0 13.134 -3.2573 0.475784 -4.15463 -0.547792 0 20.686 -1.6905 -2.02618e-005 18.9671 1.07046e-005 0 7.238 -0.1237 6.42518 -37.9486 3.35383 1.7069 20.075 5.0056 -17.9858 -9.45577 -27.2284 13.6458 -0.047 -4.849 -54.8124 58.0007 25.5609 28.3255 -0.9759 2.2888 -2.85247 2.68184 -4.39207 22.1583 -0.53 10.8316 22.7209 -16.4547 -29.8771 0.786 0.112 2.5817 -6.36111e-015 7.95139e-016 -2.38542e-015 0.3601 -0.878 4.2331 -9.54166e-015 2.38542e-015 -2.38542e-015 1.8127 -1.216 2.2227 1.98626e-031 2.38542e-015 -4.77083e-015 0.9571 1.114 1.7695 -6.36111e-015 7.95139e-016 -7.95139e-016 4.1246 0.487 4.1451 -6.36111e-015 1.35174e-014 1.98785e-014 3.4052 -1.454 2.7682 3.18055e-015 2.38542e-015 -7.95139e-016 1.4531 -1.795 1.2713 6.36111e-015 0 -7.95139e-016 5.6954 0.21 2.1184 -6.36111e-015 1.35174e-014 1.98785e-014 3.9766 -1.54 2.3863 3.18055e-015 2.38542e-015 -7.95139e-016 1.4042 -1.926 1.125 6.36111e-015 0 -7.95139e-016 2.0956 0.66 -0.3894 -6.36111e-015 7.95139e-016 -7.95139e-016 5.0395 -0.09 2.4971 -6.36111e-015 1.35174e-014 1.98785e-014 3.7921 -1.552 1.4806 3.18055e-015 2.38542e-015 -7.95139e-016 1.4655 -1.808 0.9609 6.36111e-015 0 -7.95139e-016 4.9141 -1.269 0.3591 -6.36111e-015 1.35174e-014 1.98785e-014 3.1477 -1.685 0.8462 3.18055e-015 2.38542e-015 -7.95139e-016 0.8055 -1.585 0.7955 6.36111e-015 0 -7.95139e-016 -1.7069 20.075 5.0056 12.3709 0.0902012 -34.878 -13.6458 -0.047 -4.849 91.563 -3.90494 73.2441 -28.3255 -0.9759 2.2888 12.8443 44.9374 71.7023 -22.1583 -0.53 10.8316 46.3838 -22.0918 9.80882 -0.786 0.112 2.5817 3.18055e-015 7.95139e-015 4.77083e-015 -0.3601 -0.878 4.2331 -3.18055e-015 -6.36111e-015 -1.59028e-015 -1.8127 -1.216 2.2227 9.26536e-007 -4.19366e-007 1.31858e-006 -0.9571 1.114 1.7695 3.18055e-015 7.95139e-015 3.18055e-015 -4.1246 0.487 4.1451 -3.18055e-015 -6.36111e-015 -1.59028e-015 -3.4052 -1.454 2.7682 -6.36111e-015 -1.59028e-015 -0 -1.4531 -1.795 1.2713 9.26536e-007 -4.19366e-007 1.31858e-006 -5.6954 0.21 2.1184 -3.18055e-015 -6.36111e-015 -1.59028e-015 -3.9766 -1.54 2.3863 -6.36111e-015 -1.59028e-015 -0 -1.4042 -1.926 1.125 9.26536e-007 -4.19366e-007 1.31858e-006 -2.0956 0.66 -0.3894 3.18055e-015 7.95139e-015 3.18055e-015 -5.0395 -0.09 2.4971 -3.18055e-015 -6.36111e-015 -1.59028e-015 -3.7921 -1.552 1.4806 -6.36111e-015 -1.59028e-015 -0 -1.4655 -1.808 0.9609 9.26536e-007 -4.19366e-007 1.31858e-006 -4.9141 -1.269 0.3592 -3.18055e-015 -6.36111e-015 -1.59028e-015 -3.1477 -1.685 0.8462 -6.36111e-015 -1.59028e-015 -0 -0.8055 -1.585 0.7955 9.26536e-007 -4.19366e-007 1.31858e-006 8.367 -8.2066 0.5982 59.9134 -12.8555 21.6705 2.1923 -43.463 -0.4932 2.2427 79.5698 2.5804 0.7333 -45.8593 -2.6451 -46.4336 48.2979 60.0151 -8.367 -8.2066 0.5982 -60.0458 -12.9298 -21.6184 -2.1923 -43.463 -0.4931 -2.34906 79.5496 -2.48475 -0.7333 -45.8593 -2.6451 46.4907 48.2819 -60.0669 
1.74451 58.5622 13.597 0 27.9558 -0 0 -1.186 -1.5018 0.24363 -2.22708 -0.27722 -2.22045e-016 9.964 0.2134 0.477006 -4.45532 -0.54557 4.44089e-016 13.134 -3.2573 0.477006 -4.45532 -0.545571 4.44089e-016 20.686 -1.6905 -2.72466e-005 18.2071 9.44232e-006 4.44089e-016 7.238 -0.1237 6.41849 -38.3815 3.40269 1.7069 20.075 5.0056 -18.095 -9.16399 -27.0218 13.6458 -0.047 -4.849 -54.8124 58.0007 25.5609 28.3255 -0.9759 2.2888 -2.8043 2.67123 -4.16461 22.1583 -0.53 10.8316 22.8305 -16.5486 -30.0981 0.786 0.112 2.5817 -1.90603e-006 -1.40024e-006 -1.62418e-006 0.3601 -0.878 4.2331 1.90603e-006 1.40024e-006 1.62418e-006 1.8127 -1.216 2.2227 -1.90603e-006 -1.40024e-006 -1.62418e-006 0.9571 1.114 1.7695 1.10348e-032 -7.95139e-016 7.95139e-016 4.1246 0.487 4.1451 -1.90603e-006 -1.40024e-006 -1.62418e-006 3.4052 -1.454 2.7682 1.90603e-006 1.40024e-006 1.62418e-006 1.4531 -1.795 1.2713 -1.90603e-006 -1.40024e-006 -1.62418e-006 5.6954 0.21 2.1184 -1.90603e-006 -1.40024e-006 -1.62418e-006 3.9766 -1.54 2.3863 1.90603e-006 1.40024e-006 1.62418e-006 1.4042 -1.926 1.125 -1.90603e-006 -1.40024e-006 -1.62418e-006 2.0956 0.66 -0.3894 1.10348e-032 -7.95139e-016 7.95139e-016 5.0395 -0.09 2.4971 -1.90603e-006 -1.40024e-006 -1.62418e-006 3.7921 -1.552 1.4806 1.90603e-006 1.40024e-006 1.62418e-006 1.4655 -1.808 0.9609 -1.90603e-006 -1.40024e-006 -1.62418e-006 4.9141 -1.269 0.3591 -1.90603e-006 -1.40024e-006 -1.62418e-006 3.1477 -1.685 0.8462 1.90603e-006 1.40024e-006 1.62418e-006 0.8055 -1.585 0.7955 -1.90603e-006 -1.40024e-006 -1.62418e-006 -1.7069 20.075 5.0056 12.4826 0.172102 -35.1588 -13.6458 -0.047 -4.849 91.5643 -3.76571 73.1732 -28.3255 -0.9759 2.2888 12.8443 44.9374 71.7023 -22.1583 -0.53 10.8316 46.4615 -22.023 9.86378 -0.786 0.112 2.5817 3.02542e-006 2.98227e-006 -1.29485e-006 -0.3601 -0.878 4.2331 -3.894e-007 -2.22617e-006 -5.58332e-007 -1.8127 -1.216 2.2227 1.31599e-006 1.80537e-006 1.87634e-006 -0.9571 1.114 1.7695 -6.36111e-015 -9.54166e-015 -3.18055e-015 -4.1246 0.487 4.1451 3.02542e-006 2.98227e-006 -1.29485e-006 -3.4052 -1.454 2.7682 -3.894e-007 -2.22617e-006 -5.58332e-007 -1.4531 -1.795 1.2713 1.31599e-006 1.80537e-006 1.87634e-006 -5.6954 0.21 2.1184 3.02542e-006 2.98227e-006 -1.29485e-006 -3.9766 -1.54 2.3863 -3.894e-007 -2.22617e-006 -5.58332e-007 -1.4042 -1.926 1.125 1.31599e-006 1.80537e-006 1.87634e-006 -2.0956 0.66 -0.3894 -6.36111e-015 -9.54166e-015 -3.18055e-015 -5.0395 -0.09 2.4971 3.02542e-006 2.98227e-006 -1.29485e-006 -3.7921 -1.552 1.4806 -3.894e-007 -2.22617e-006 -5.58332e-007 -1.4655 -1.808 0.9609 1.31599e-006 1.80537e-006 1.87634e-006 -4.9141 -1.269 0.3592 3.02542e-006 2.98227e-006 -1.29485e-006 -3.1477 -1.685 0.8462 -3.894e-007 -2.22617e-006 -5.58332e-007 -0.8055 -1.585 0.7955 1.31599e-006 1.80537e-006 1.87634e-006 8.367 -8.2066 0.5982 59.7489 -13.5699 21.8464 2.1923 -43.463 -0.4932 2.36078 79.8261 2.49774 0.7333 -45.8593 -2.6451 -47.0496 48.0205 60.4754 -8.367 -8.2066 0.5982 -59.8919 -13.6465 -21.7977 -2.1923 -43.463 -0.4931 -2.46799 79.8043 -2.40153 -0.7333 -45.8593 -2.6451 47.1013 48.0071 -60.5235 
1.74498 58.5943 13.4659 0 28.6084 -0 0 -1.186 -1.5018 0.244555 -2.37743 -0.2764 0 9.964 0.2134 0.478236 -4.75595 -0.543332 4.44089e-016 13.134 -3.2573 0.478237 -4.75596 -0.543333 0 20.686 -1.6905 -9.56903e-007 17.4469 -6.80019e-008 0 7.238 -0.1237 6.41224 -38.8138 3.45171 1.7069 20.075 5.0056 -18.2053 -8.87264 -26.8148 13.6458 -0.047 -4.849 -54.8124 58.0007 25.5609 28.3255 -0.9759 2.2888 -2.7561 2.6608 -3.93713 22.1583 -0.53 10.8316 22.9398 -16.6428 -30.3189 0.786 0.112 2.5817 -4.55331e-006 -3.90806e-006 -2.18571e-006 0.3601 -0.878 4.2331 1.6314e-006 -6.50734e-006 -3.51538e-006 1.8127 -1.216 2.2227 -4.55331e-006 -3.90806e-006 -2.1857e-006 0.9571 1.114 1.7695 3.18055e-015 0 7.95139e-016 4.1246 0.487 4.1451 -4.55331e-006 -3.90806e-006 -2.18571e-006 3.4052 -1.454 2.7682 1.6314e-006 -6.50734e-006 -3.51538e-006 1.4531 -1.795 1.2713 -4.55331e-006 -3.90806e-006 -2.1857e-006 5.6954 0.21 2.1184 -4.55331e-006 -3.90806e-006 -2.18571e-006 3.9766 -1.54 2.3863 1.6314e-006 -6.50734e-006 -3.51538e-006 1.4042 -1.926 1.125 -4.55331e-006 -3.90806e-006 -2.1857e-006 2.0956 0.66 -0.3894 3.18055e-015 0 7.95139e-016 5.0395 -0.09 2.4971 -4.55331e-006 -3.90806e-006 -2.18571e-006 3.7921 -1.552 1.4806 1.6314e-006 -6.50734e-006 -3.51538e-006 1.4655 -1.808 0.9609 -4.55331e-006 -3.90806e-006 -2.1857e-006 4.9141 -1.269 0.3591 -4.55331e-006 -3.90806e-006 -2.18571e-006 3.1477 -1.685 0.8462 1.6314e-006 -6.50734e-006 -3.51538e-006 0.8055 -1.585 0.7955 -4.55331e-006 -3.90806e-006 -2.1857e-006 -1.7069 20.075 5.0056 12.5947 0.253429 -35.4397 -13.6458 -0.047 -4.849 91.5657 -3.6265 73.1024 -28.3255 -0.9759 2.2888 12.8443 44.9374 71.7023 -22.1583 -0.53 10.8316 46.539 -21.9541 9.91861 -0.786 0.112 2.5817 9.26636e-007 -4.22245e-007 1.31745e-006 -0.3601 -0.878 4.2331 -1.85327e-006 8.44491e-007 -2.6349e-006 -1.8127 -1.216 2.2227 9.26636e-007 -4.22246e-007 1.31745e-006 -0.9571 1.114 1.7695 3.18055e-015 3.18055e-015 4.77083e-015 -4.1246 0.487 4.1451 9.26636e-007 -4.22245e-007 1.31745e-006 -3.4052 -1.454 2.7682 -1.85327e-006 8.44491e-007 -2.6349e-006 -1.4531 -1.795 1.2713 9.26636e-007 -4.22246e-007 1.31745e-006 -5.6954 0.21 2.1184 9.26636e-007 -4.22245e-007 1.31745e-006 -3.9766 -1.54 2.3863 -1.85327e-006 8.44491e-007 -2.6349e-006 -1.4042 -1.926 1.125 9.26636e-007 -4.22246e-007 1.31745e-006 -2.0956 0.66 -0.3894 3.18055e-015 3.18055e-015 4.77083e-015 -5.0395 -0.09 2.4971 9.26636e-007 -4.22245e-007 1.31745e-006 -3.7921 -1.552 1.4806 -1.85327e-006 8.44491e-007 -2.6349e-006 -1.4655 -1.808 0.9609 9.26636e-007 -4.22246e-007 1.31745e-006 -4.9141 -1.269 0.3592 9.26636e-007 -4.22245e-007 1.31745e-006 -3.1477 -1.685 0.8462 -1.85327e-006 8.44491e-007 -2.6349e-006 -0.8055 -1.585 0.7955 9.26636e-007 -4.22246e-007 1.31745e-006 8.367 -8.2066 0.5982 59.5863 -14.285 22.0208 2.1923 -43.463 -0.4932 2.48511 80.0821 2.40893 0.7333 -45.8593 -2.6451 -47.6596 47.7403 60.9295 -8.367 -8.2066 0.5982 -59.7399 -14.3639 -21.9754 -2.1923 -43.463 -0.4931 -2.59311 80.0588 -2.31228 -0.7333 -45.8593 -2.6451 47.7059 47.7296 -60.9741 
